<svg id="visual" viewBox="0 0 960 300" width="960" height="300" xmlns="http://www.w3.org/2000/svg" xmlns:xlink="http://www.w3.org/1999/xlink" version="1.1"><rect x="0" y="0" width="960" height="300" fill="#001220"></rect><path d="M0 91L22.8 90.3C45.7 89.7 91.3 88.3 137 92.7C182.7 97 228.3 107 274 109.5C319.7 112 365.3 107 411.2 107.5C457 108 503 114 548.8 109.5C594.7 105 640.3 90 686 85.8C731.7 81.7 777.3 88.3 823 91.2C868.7 94 914.3 93 937.2 92.5L960 92L960 0L937.2 0C914.3 0 868.7 0 823 0C777.3 0 731.7 0 686 0C640.3 0 594.7 0 548.8 0C503 0 457 0 411.2 0C365.3 0 319.7 0 274 0C228.3 0 182.7 0 137 0C91.3 0 45.7 0 22.8 0L0 0Z" fill="#fa7268"></path><path d="M0 98L22.8 98.5C45.7 99 91.3 100 137 97C182.7 94 228.3 87 274 84.7C319.7 82.3 365.3 84.7 411.2 81.5C457 78.3 503 69.7 548.8 72C594.7 74.3 640.3 87.7 686 94.5C731.7 101.3 777.3 101.7 823 96.3C868.7 91 914.3 80 937.2 74.5L960 69L960 0L937.2 0C914.3 0 868.7 0 823 0C777.3 0 731.7 0 686 0C640.3 0 594.7 0 548.8 0C503 0 457 0 411.2 0C365.3 0 319.7 0 274 0C228.3 0 182.7 0 137 0C91.3 0 45.7 0 22.8 0L0 0Z" fill="#ef5f67"></path><path d="M0 79L22.8 74.2C45.7 69.3 91.3 59.7 137 59C182.7 58.3 228.3 66.7 274 70.3C319.7 74 365.3 73 411.2 71.5C457 70 503 68 548.8 65.2C594.7 62.3 640.3 58.7 686 55.2C731.7 51.7 777.3 48.3 823 50.2C868.7 52 914.3 59 937.2 62.5L960 66L960 0L937.2 0C914.3 0 868.7 0 823 0C777.3 0 731.7 0 686 0C640.3 0 594.7 0 548.8 0C503 0 457 0 411.2 0C365.3 0 319.7 0 274 0C228.3 0 182.7 0 137 0C91.3 0 45.7 0 22.8 0L0 0Z" fill="#e34c67"></path><path d="M0 35L22.8 38.7C45.7 42.3 91.3 49.7 137 52.2C182.7 54.7 228.3 52.3 274 52.3C319.7 52.3 365.3 54.7 411.2 54.3C457 54 503 51 548.8 47C594.7 43 640.3 38 686 38.5C731.7 39 777.3 45 823 45.3C868.7 45.7 914.3 40.3 937.2 37.7L960 35L960 0L937.2 0C914.3 0 868.7 0 823 0C777.3 0 731.7 0 686 0C640.3 0 594.7 0 548.8 0C503 0 457 0 411.2 0C365.3 0 319.7 0 274 0C228.3 0 182.7 0 137 0C91.3 0 45.7 0 22.8 0L0 0Z" fill="#d53867"></path><path d="M0 22L22.8 22C45.7 22 91.3 22 137 20.7C182.7 19.3 228.3 16.7 274 15.8C319.7 15 365.3 16 411.2 18C457 20 503 23 548.8 26C594.7 29 640.3 32 686 30.5C731.7 29 777.3 23 823 22.8C868.7 22.7 914.3 28.3 937.2 31.2L960 34L960 0L937.2 0C914.3 0 868.7 0 823 0C777.3 0 731.7 0 686 0C640.3 0 594.7 0 548.8 0C503 0 457 0 411.2 0C365.3 0 319.7 0 274 0C228.3 0 182.7 0 137 0C91.3 0 45.7 0 22.8 0L0 0Z" fill="#c62368"></path></svg>