<svg id="visual" viewBox="0 0 960 300" width="960" height="300" xmlns="http://www.w3.org/2000/svg" xmlns:xlink="http://www.w3.org/1999/xlink" version="1.1"><rect x="0" y="0" width="960" height="300" fill="#195f94"></rect><path d="M744 0L758.8 7.2C773.7 14.3 803.3 28.7 775.3 43C747.3 57.3 661.7 71.7 581 86C500.3 100.3 424.7 114.7 448.7 128.8C472.7 143 596.3 157 606.7 171.2C617 185.3 514 199.7 513.3 214C512.7 228.3 614.3 242.7 652 257C689.7 271.3 663.3 285.7 650.2 292.8L637 300L0 300L0 292.8C0 285.7 0 271.3 0 257C0 242.7 0 228.3 0 214C0 199.7 0 185.3 0 171.2C0 157 0 143 0 128.8C0 114.7 0 100.3 0 86C0 71.7 0 57.3 0 43C0 28.7 0 14.3 0 7.2L0 0Z" fill="#3e45a9"></path><path d="M401 0L389.2 7.2C377.3 14.3 353.7 28.7 351.2 43C348.7 57.3 367.3 71.7 431.3 86C495.3 100.3 604.7 114.7 656.3 128.8C708 143 702 157 690.8 171.2C679.7 185.3 663.3 199.7 618.5 214C573.7 228.3 500.3 242.7 484.3 257C468.3 271.3 509.7 285.7 530.3 292.8L551 300L0 300L0 292.8C0 285.7 0 271.3 0 257C0 242.7 0 228.3 0 214C0 199.7 0 185.3 0 171.2C0 157 0 143 0 128.8C0 114.7 0 100.3 0 86C0 71.7 0 57.3 0 43C0 28.7 0 14.3 0 7.2L0 0Z" fill="#7b3fa3"></path><path d="M511 0L516.5 7.2C522 14.3 533 28.7 518.5 43C504 57.3 464 71.7 466.3 86C468.7 100.3 513.3 114.7 546.7 128.8C580 143 602 157 597.2 171.2C592.3 185.3 560.7 199.7 540.3 214C520 228.3 511 242.7 489.3 257C467.7 271.3 433.3 285.7 416.2 292.8L399 300L0 300L0 292.8C0 285.7 0 271.3 0 257C0 242.7 0 228.3 0 214C0 199.7 0 185.3 0 171.2C0 157 0 143 0 128.8C0 114.7 0 100.3 0 86C0 71.7 0 57.3 0 43C0 28.7 0 14.3 0 7.2L0 0Z" fill="#a43896"></path><path d="M435 0L410 7.2C385 14.3 335 28.7 362.2 43C389.3 57.3 493.7 71.7 518 86C542.3 100.3 486.7 114.7 479.2 128.8C471.7 143 512.3 157 514.8 171.2C517.3 185.3 481.7 199.7 462.3 214C443 228.3 440 242.7 409.2 257C378.3 271.3 319.7 285.7 290.3 292.8L261 300L0 300L0 292.8C0 285.7 0 271.3 0 257C0 242.7 0 228.3 0 214C0 199.7 0 185.3 0 171.2C0 157 0 143 0 128.8C0 114.7 0 100.3 0 86C0 71.7 0 57.3 0 43C0 28.7 0 14.3 0 7.2L0 0Z" fill="#c43685"></path><path d="M349 0L325.3 7.2C301.7 14.3 254.3 28.7 244 43C233.7 57.3 260.3 71.7 297.3 86C334.3 100.3 381.7 114.7 417 128.8C452.3 143 475.7 157 466 171.2C456.3 185.3 413.7 199.7 383.2 214C352.7 228.3 334.3 242.7 361.3 257C388.3 271.3 460.7 285.7 496.8 292.8L533 300L0 300L0 292.8C0 285.7 0 271.3 0 257C0 242.7 0 228.3 0 214C0 199.7 0 185.3 0 171.2C0 157 0 143 0 128.8C0 114.7 0 100.3 0 86C0 71.7 0 57.3 0 43C0 28.7 0 14.3 0 7.2L0 0Z" fill="#d23a79"></path><path d="M445 0L415.3 7.2C385.7 14.3 326.3 28.7 305.8 43C285.3 57.3 303.7 71.7 315 86C326.3 100.3 330.7 114.7 306.2 128.8C281.7 143 228.3 157 211.7 171.2C195 185.3 215 199.7 229.8 214C244.7 228.3 254.3 242.7 271.7 257C289 271.3 314 285.7 326.5 292.8L339 300L0 300L0 292.8C0 285.7 0 271.3 0 257C0 242.7 0 228.3 0 214C0 199.7 0 185.3 0 171.2C0 157 0 143 0 128.8C0 114.7 0 100.3 0 86C0 71.7 0 57.3 0 43C0 28.7 0 14.3 0 7.2L0 0Z" fill="#d23a79"></path><path d="M286 0L261 7.2C236 14.3 186 28.7 186.2 43C186.3 57.3 236.7 71.7 258.3 86C280 100.3 273 114.7 258.8 128.8C244.7 143 223.3 157 240.5 171.2C257.7 185.3 313.3 199.7 327.2 214C341 228.3 313 242.7 291.5 257C270 271.3 255 285.7 247.5 292.8L240 300L0 300L0 292.8C0 285.7 0 271.3 0 257C0 242.7 0 228.3 0 214C0 199.7 0 185.3 0 171.2C0 157 0 143 0 128.8C0 114.7 0 100.3 0 86C0 71.7 0 57.3 0 43C0 28.7 0 14.3 0 7.2L0 0Z" fill="#c43685"></path><path d="M132 0L133 7.2C134 14.3 136 28.7 141 43C146 57.3 154 71.7 150.3 86C146.7 100.3 131.3 114.7 121.8 128.8C112.3 143 108.7 157 127.3 171.2C146 185.3 187 199.7 197 214C207 228.3 186 242.7 174.2 257C162.3 271.3 159.7 285.7 158.3 292.8L157 300L0 300L0 292.8C0 285.7 0 271.3 0 257C0 242.7 0 228.3 0 214C0 199.7 0 185.3 0 171.2C0 157 0 143 0 128.8C0 114.7 0 100.3 0 86C0 71.7 0 57.3 0 43C0 28.7 0 14.3 0 7.2L0 0Z" fill="#a43896"></path><path d="M65 0L78.2 7.2C91.3 14.3 117.7 28.7 142.5 43C167.3 57.3 190.7 71.7 179.3 86C168 100.3 122 114.7 117.7 128.8C113.3 143 150.7 157 175.2 171.2C199.7 185.3 211.3 199.7 202.7 214C194 228.3 165 242.7 158.2 257C151.3 271.3 166.7 285.7 174.3 292.8L182 300L0 300L0 292.8C0 285.7 0 271.3 0 257C0 242.7 0 228.3 0 214C0 199.7 0 185.3 0 171.2C0 157 0 143 0 128.8C0 114.7 0 100.3 0 86C0 71.7 0 57.3 0 43C0 28.7 0 14.3 0 7.2L0 0Z" fill="#7b3fa3"></path><path d="M43 0L59.2 7.2C75.3 14.3 107.7 28.7 108 43C108.3 57.3 76.7 71.7 62.3 86C48 100.3 51 114.7 63.7 128.8C76.3 143 98.7 157 110.5 171.2C122.3 185.3 123.7 199.7 114.3 214C105 228.3 85 242.7 79.2 257C73.3 271.3 81.7 285.7 85.8 292.8L90 300L0 300L0 292.8C0 285.7 0 271.3 0 257C0 242.7 0 228.3 0 214C0 199.7 0 185.3 0 171.2C0 157 0 143 0 128.8C0 114.7 0 100.3 0 86C0 71.7 0 57.3 0 43C0 28.7 0 14.3 0 7.2L0 0Z" fill="#3e45a9"></path></svg>